<svg width="112" height="38" viewBox="0 0 112 38" fill="none" xmlns="http://www.w3.org/2000/svg">
<path d="M0.555924 37.539L0.898924 34.256C2.30359 34.0273 3.23459 33.619 3.69192 33.031C4.18192 32.443 4.42692 31.4303 4.42692 29.993L4.47592 11.324C4.47592 10.2787 4.37792 9.57633 4.18192 9.217C3.98592 8.85767 3.56126 8.678 2.90792 8.678C2.61392 8.678 2.28726 8.69433 1.92792 8.727C1.56859 8.75967 1.38892 8.776 1.38892 8.776L1.09492 8.335L1.48692 5.395C1.48692 5.395 1.76459 5.41133 2.31992 5.444C2.90792 5.444 3.65926 5.46033 4.57392 5.493C5.48859 5.493 6.45226 5.50933 7.46492 5.542C8.51026 5.542 9.47392 5.542 10.3559 5.542C12.4466 5.542 14.3413 5.52567 16.0399 5.493C17.7713 5.46033 19.3229 5.395 20.6949 5.297C22.0669 5.199 23.2103 5.08466 24.1249 4.954L24.5169 5.493C24.5169 5.493 24.4516 5.934 24.3209 6.816C24.1903 7.66533 24.0269 8.776 23.8309 10.148C23.6676 11.52 23.5533 12.9573 23.4879 14.46L19.1269 14.705C19.1269 14.705 19.1433 14.4437 19.1759 13.921C19.2086 13.3983 19.2249 12.99 19.2249 12.696C19.2249 11.7813 19.1106 11.1117 18.8819 10.687C18.6533 10.2297 18.1633 9.93567 17.4119 9.805C16.6606 9.64167 15.5173 9.56 13.9819 9.56C13.1979 9.56 12.6099 9.59267 12.2179 9.658C11.8586 9.72333 11.6299 9.87033 11.5319 10.099C11.4339 10.3277 11.3686 10.7033 11.3359 11.226L10.9929 19.752L15.5989 19.801C16.0889 19.801 16.7423 19.7683 17.5589 19.703C18.3756 19.605 19.1106 19.5233 19.7639 19.458C20.4173 19.3927 20.7439 19.36 20.7439 19.36L21.0869 19.801L20.4009 23.966C20.4009 23.966 20.0743 23.9497 19.4209 23.917C18.7676 23.8843 17.9836 23.868 17.0689 23.868C16.1543 23.8353 15.3213 23.819 14.5699 23.819C13.8513 23.819 13.1489 23.868 12.4629 23.966C11.8096 24.0313 11.2706 24.0967 10.8459 24.162L10.6989 30.14C10.6989 31.3813 10.8459 32.2143 11.1399 32.639C11.4339 33.0637 11.9893 33.276 12.8059 33.276C13.1979 33.276 13.6389 33.2597 14.1289 33.227C14.6516 33.1617 15.0926 33.1127 15.4519 33.08C15.8113 33.0473 15.9909 33.031 15.9909 33.031L16.4319 33.521L15.8929 37.196C15.8929 37.196 15.6153 37.1797 15.0599 37.147C14.5046 37.147 13.8186 37.1307 13.0019 37.098C12.1853 37.0653 11.3523 37.0327 10.5029 37C9.65359 37 8.90226 37 8.24892 37C7.07292 37 5.88059 37.049 4.67192 37.147C3.49592 37.245 2.51592 37.3267 1.73192 37.392C0.947924 37.49 0.555924 37.539 0.555924 37.539ZM31.2422 37.588C29.1515 37.588 27.3385 37.1307 25.8032 36.216C24.2678 35.3013 23.0592 33.9947 22.1772 32.296C21.3278 30.5973 20.9032 28.621 20.9032 26.367C20.9032 23.8843 21.3932 21.712 22.3732 19.85C23.3858 17.9553 24.7742 16.4853 26.5382 15.44C28.3348 14.362 30.3928 13.823 32.7122 13.823C34.8355 13.823 36.6648 14.2803 38.2002 15.195C39.7355 16.1097 40.9115 17.4 41.7282 19.066C42.5775 20.732 43.0022 22.7083 43.0022 24.995C43.0022 27.4777 42.5122 29.6663 41.5322 31.561C40.5522 33.4557 39.1638 34.942 37.3672 36.02C35.6032 37.0653 33.5615 37.588 31.2422 37.588ZM32.2222 33.913C33.6268 33.913 34.6885 33.3577 35.4072 32.247C36.1585 31.1037 36.5342 29.4377 36.5342 27.249C36.5342 25.191 36.3382 23.476 35.9462 22.104C35.5542 20.6993 34.9825 19.654 34.2312 18.968C33.5125 18.282 32.6305 17.939 31.5852 17.939C30.1805 17.939 29.1025 18.4943 28.3512 19.605C27.6325 20.7157 27.2732 22.3817 27.2732 24.603C27.2732 26.661 27.4692 28.3923 27.8612 29.797C28.2532 31.169 28.8085 32.198 29.5272 32.884C30.2785 33.57 31.1768 33.913 32.2222 33.913ZM43.3268 34.207C44.3068 34.1417 44.9601 33.8803 45.2868 33.423C45.6461 32.9657 45.8258 32.1 45.8258 30.826V21.075C45.8258 19.9643 45.6788 19.213 45.3848 18.821C45.0908 18.3963 44.5355 18.184 43.7188 18.184C43.5228 18.184 43.3105 18.2003 43.0818 18.233C42.8858 18.233 42.7878 18.233 42.7878 18.233L42.5428 17.89L42.8368 15.44C44.2415 15.2113 45.6135 14.9663 46.9528 14.705C48.2921 14.4437 49.4028 14.2313 50.2848 14.068C51.1995 13.872 51.6568 13.774 51.6568 13.774L52.0978 14.215C52.0978 14.215 52.0488 14.46 51.9508 14.95C51.8855 15.4073 51.8201 15.9953 51.7548 16.714C51.6895 17.4 51.6405 18.1023 51.6078 18.821L51.9018 19.017C52.9471 17.4817 54.0741 16.2893 55.2828 15.44C56.4915 14.5907 57.6511 14.166 58.7618 14.166C59.2845 14.166 59.6928 14.1987 59.9868 14.264C60.3135 14.2967 60.4768 14.313 60.4768 14.313L60.6728 14.705C60.6728 14.705 60.6238 14.9827 60.5258 15.538C60.4605 16.0607 60.3625 16.763 60.2318 17.645C60.1338 18.527 60.0195 19.4907 59.8888 20.536C59.7908 21.5813 59.7255 22.594 59.6928 23.574L56.5568 23.77C56.5568 22.202 56.4588 21.173 56.2628 20.683C56.0995 20.1603 55.7401 19.899 55.1848 19.899C54.6621 19.899 54.1068 20.095 53.5188 20.487C52.9308 20.879 52.3755 21.418 51.8528 22.104C51.8528 22.104 51.8365 22.398 51.8038 22.986C51.7711 23.5413 51.7221 24.26 51.6568 25.142C51.6241 26.024 51.5915 26.9223 51.5588 27.837C51.5261 28.7517 51.4935 29.552 51.4608 30.238C51.4281 30.924 51.4118 31.365 51.4118 31.561C51.4118 32.4103 51.5425 32.9983 51.8038 33.325C52.0978 33.6517 52.6041 33.815 53.3228 33.815C53.7801 33.815 54.3028 33.7987 54.8908 33.766C55.4788 33.7007 55.7728 33.668 55.7728 33.668L55.9198 33.962L55.3808 37.196C55.3808 37.196 55.1685 37.1797 54.7438 37.147C54.3191 37.1143 53.7638 37.0817 53.0778 37.049C52.4245 37.049 51.7385 37.0327 51.0198 37C50.3011 37 49.6478 37 49.0598 37C48.0798 37 47.1161 37.0163 46.1688 37.049C45.2215 37.0817 44.4375 37.1143 43.8168 37.147C43.2288 37.1797 42.9348 37.196 42.9348 37.196L43.3268 34.207ZM62.8843 37.294L63.1783 34.305C64.1583 34.207 64.8606 33.9293 65.2853 33.472C65.71 33.0147 65.9223 32.3613 65.9223 31.512V19.997C65.8896 19.2457 65.661 18.7393 65.2363 18.478C64.8116 18.2167 63.9786 18.0697 62.7373 18.037L62.5413 17.743L62.9333 15.244L65.9223 14.754V14.362C65.955 11.5527 66.4613 9.119 67.4413 7.061C68.454 5.003 69.875 3.41867 71.7043 2.308C73.5336 1.19733 75.6896 0.641998 78.1723 0.641998C79.871 0.641998 81.243 0.821665 82.2883 1.181C83.3336 1.50767 83.8563 1.671 83.8563 1.671L84.0523 2.406C84.0523 2.406 83.8726 2.83067 83.5133 3.68C83.154 4.52933 82.762 5.542 82.3373 6.718L81.7493 6.865C81.7493 6.865 81.5206 6.718 81.0633 6.424C80.6386 6.09733 80.0343 5.787 79.2503 5.493C78.4663 5.16633 77.568 5.003 76.5553 5.003C75.4446 5.003 74.53 5.26433 73.8113 5.787C73.1253 6.277 72.619 7.09367 72.2923 8.237C71.9656 9.34767 71.8023 10.834 71.8023 12.696L71.7533 14.95C72.9293 14.95 73.991 14.9337 74.9383 14.901C75.8856 14.8683 76.637 14.852 77.1923 14.852C77.7803 14.8193 78.0743 14.803 78.0743 14.803L78.2213 15.048L77.7313 18.331C77.7313 18.331 77.47 18.331 76.9473 18.331C76.4246 18.2983 75.706 18.2657 74.7913 18.233C73.8766 18.2003 72.8476 18.184 71.7043 18.184L71.5573 31.512C71.5573 33.0473 72.2433 33.815 73.6153 33.815C74.3666 33.815 75.0526 33.7987 75.6733 33.766C76.294 33.7333 76.6043 33.717 76.6043 33.717L76.8003 33.913L76.3103 37.147C76.3103 37.147 76.049 37.1307 75.5263 37.098C75.0036 37.098 74.3503 37.0817 73.5663 37.049C72.815 37.049 72.0473 37.0327 71.2633 37C70.4793 37 69.826 37 69.3033 37C68.6173 37 67.8986 37 67.1473 37C66.396 37.0327 65.6936 37.0653 65.0403 37.098C64.387 37.1633 63.8643 37.2123 63.4723 37.245C63.0803 37.2777 62.8843 37.294 62.8843 37.294ZM81.7895 37.539L82.1815 34.452C83.1288 34.2887 83.8148 33.962 84.2395 33.472C84.6968 32.982 84.9255 32.296 84.9255 31.414V20.83C84.9255 19.7847 84.7785 19.066 84.4845 18.674C84.1905 18.282 83.6515 18.086 82.8675 18.086C82.6715 18.086 82.4265 18.1187 82.1325 18.184C81.8712 18.2167 81.7405 18.233 81.7405 18.233L82.0345 15.44C83.1452 15.2767 84.2395 15.1133 85.3175 14.95C86.4282 14.754 87.4245 14.5743 88.3065 14.411C89.2212 14.215 89.9398 14.068 90.4625 13.97C91.0178 13.872 91.2955 13.823 91.2955 13.823L91.7365 14.607C91.5732 14.9663 91.4098 15.6687 91.2465 16.714C91.1158 17.7267 91.0015 19.0007 90.9035 20.536C90.8055 22.0387 90.7238 23.77 90.6585 25.73C90.5932 27.6573 90.5605 29.699 90.5605 31.855C90.5605 32.6063 90.6748 33.1617 90.9035 33.521C91.1322 33.8477 91.5242 34.011 92.0795 34.011C92.3408 34.011 92.6348 33.9947 92.9615 33.962C93.3208 33.9293 93.5005 33.913 93.5005 33.913L93.6475 34.158L93.1575 37.147C93.1575 37.147 92.9778 37.1307 92.6185 37.098C92.2592 37.098 91.7855 37.0817 91.1975 37.049C90.6422 37.049 90.0542 37.0327 89.4335 37C88.8455 37 88.2902 37 87.7675 37C86.9835 37 86.1178 37.049 85.1705 37.147C84.2558 37.245 83.4555 37.3267 82.7695 37.392C82.1162 37.49 81.7895 37.539 81.7895 37.539ZM87.3265 9.609C86.2158 9.609 85.3665 9.29867 84.7785 8.678C84.2232 8.02466 83.9455 7.19166 83.9455 6.179C83.9455 5.03567 84.3048 4.10466 85.0235 3.386C85.7422 2.63466 86.6732 2.259 87.8165 2.259C88.8945 2.259 89.7112 2.58566 90.2665 3.239C90.8545 3.89233 91.1485 4.72533 91.1485 5.738C91.1485 6.88133 90.8055 7.81233 90.1195 8.531C89.4335 9.24967 88.5025 9.609 87.3265 9.609ZM101.634 37.588C100.327 37.588 99.1841 37.4737 98.2041 37.245C97.2241 37.0163 96.4565 36.804 95.9011 36.608C95.3785 36.3793 95.1171 36.265 95.1171 36.265L94.8231 35.775C94.8885 35.3177 94.9538 34.697 95.0191 33.913C95.1171 33.129 95.1988 32.3287 95.2641 31.512C95.3621 30.6627 95.4275 29.9277 95.4601 29.307L98.1551 29.062C98.1878 30.728 98.5635 31.9693 99.2821 32.786C100.001 33.6027 101.079 34.011 102.516 34.011C103.463 34.011 104.247 33.815 104.868 33.423C105.489 32.9983 105.799 32.4757 105.799 31.855C105.799 31.3977 105.652 30.9893 105.358 30.63C105.097 30.2707 104.607 29.8787 103.888 29.454C103.202 28.9967 102.206 28.4577 100.899 27.837C98.9391 26.9223 97.5181 25.9587 96.6361 24.946C95.7541 23.9007 95.3131 22.692 95.3131 21.32C95.3131 19.8173 95.7378 18.5107 96.5871 17.4C97.4365 16.2893 98.6288 15.4237 100.164 14.803C101.699 14.1497 103.447 13.823 105.407 13.823C107.008 13.823 108.314 13.97 109.327 14.264C110.372 14.558 110.895 14.705 110.895 14.705L111.14 15.195C111.14 15.195 111.075 15.5053 110.944 16.126C110.846 16.714 110.715 17.498 110.552 18.478C110.421 19.4253 110.307 20.438 110.209 21.516L107.465 21.712C107.465 21.712 107.465 21.5977 107.465 21.369C107.498 21.1403 107.514 20.9607 107.514 20.83C107.514 19.6867 107.236 18.8537 106.681 18.331C106.126 17.7757 105.26 17.498 104.084 17.498C103.202 17.498 102.467 17.7103 101.879 18.135C101.324 18.527 101.046 19.0333 101.046 19.654C101.046 20.2747 101.307 20.8463 101.83 21.369C102.385 21.8917 103.251 22.447 104.427 23.035C106.322 23.917 107.792 24.7337 108.837 25.485C109.882 26.2037 110.601 26.9387 110.993 27.69C111.418 28.4413 111.63 29.307 111.63 30.287C111.63 31.6263 111.189 32.8677 110.307 34.011C109.425 35.1217 108.216 36.0037 106.681 36.657C105.178 37.2777 103.496 37.588 101.634 37.588Z" fill="white"/>
</svg>
